# xmcd
#
# Track frame offsets:
#	150
#	25696
#	50082
#	75490
#	94444
#	114255
#	134066
#	156514
#	178851
#	198783
#	222021
#	246291
#	270558
#	292880
#
# Disc length: 4218 seconds
#
# Revision: 0
# Processed by: cddbd v1.5.2PL0 Copyright (c) Steve Scherf et al.
# Submitted via: EasyCDDAExtractor 10.5.1.1
#
DISCID=c810780e
DTITLE=Mel Devone - For Those Who Like To Step
DYEAR=2002
DGENRE=R&B
TTITLE0=For Those Who Like To Step
TTITLE1=The Mood Of The Night
TTITLE2=Ba Puedo
TTITLE3=Telephone Telephone
TTITLE4=Chicago Steppers Slide (Instr.)
TTITLE5=Chicago Steppers Slide (Vocal)
TTITLE6=I Atone
TTITLE7=Another Step
TTITLE8=58th Street Strut
TTITLE9=My Last Letter
TTITLE10=Everything's Gonna Be Alright
TTITLE11=Everythings Gonna Be Alright (Instr.)
TTITLE12=I Atone (Groovin' Instr)
TTITLE13=Roller Groove
EXTD=
EXTT0=
EXTT1=
EXTT2=
EXTT3=
EXTT4=
EXTT5=
EXTT6=
EXTT7=
EXTT8=
EXTT9=
EXTT10=
EXTT11=
EXTT12=
EXTT13=
PLAYORDER=
